<svg xmlns="http://www.w3.org/2000/svg" viewBox="0 0 1200 650" role="img" aria-label="CEOAS Chartered Accountant SaaS Platform preview">
  <rect width="1200" height="650" fill="#eef4f8"/>
  <rect width="1200" height="86" fill="#0f2f4a"/>
  <text x="58" y="56" fill="#ffffff" font-family="Arial, Helvetica, sans-serif" font-size="34" font-weight="700">CEOAS</text>
  <text x="980" y="54" fill="#bfd8e8" font-family="Arial, Helvetica, sans-serif" font-size="18">Dashboard</text>
  <rect x="54" y="126" width="250" height="466" rx="18" fill="#ffffff"/>
  <rect x="92" y="170" width="150" height="18" rx="9" fill="#0f2f4a"/>
  <rect x="92" y="225" width="164" height="14" rx="7" fill="#d8e5ed"/>
  <rect x="92" y="270" width="130" height="14" rx="7" fill="#d8e5ed"/>
  <rect x="92" y="315" width="178" height="14" rx="7" fill="#d8e5ed"/>
  <rect x="92" y="360" width="118" height="14" rx="7" fill="#d8e5ed"/>
  <rect x="338" y="126" width="808" height="168" rx="18" fill="#ffffff"/>
  <text x="382" y="176" fill="#0f2f4a" font-family="Arial, Helvetica, sans-serif" font-size="30" font-weight="700">Chartered Accountant SaaS Platform</text>
  <text x="382" y="214" fill="#5e7584" font-family="Arial, Helvetica, sans-serif" font-size="18">API-driven workflows for finance, users, reports, and real-time data.</text>
  <rect x="382" y="242" width="140" height="22" rx="11" fill="#2aa876"/>
  <rect x="542" y="242" width="160" height="22" rx="11" fill="#d9edf4"/>
  <rect x="338" y="326" width="238" height="266" rx="18" fill="#ffffff"/>
  <rect x="620" y="326" width="238" height="266" rx="18" fill="#ffffff"/>
  <rect x="902" y="326" width="244" height="266" rx="18" fill="#ffffff"/>
  <text x="382" y="380" fill="#0f2f4a" font-family="Arial, Helvetica, sans-serif" font-size="22" font-weight="700">Invoices</text>
  <text x="664" y="380" fill="#0f2f4a" font-family="Arial, Helvetica, sans-serif" font-size="22" font-weight="700">Reports</text>
  <text x="946" y="380" fill="#0f2f4a" font-family="Arial, Helvetica, sans-serif" font-size="22" font-weight="700">Clients</text>
  <polyline points="382,520 424,470 468,492 520,424" fill="none" stroke="#2aa876" stroke-width="14" stroke-linecap="round" stroke-linejoin="round"/>
  <rect x="664" y="428" width="42" height="96" rx="8" fill="#2aa876"/>
  <rect x="724" y="392" width="42" height="132" rx="8" fill="#0f2f4a"/>
  <rect x="784" y="458" width="42" height="66" rx="8" fill="#8ec9e8"/>
  <circle cx="994" cy="474" r="54" fill="none" stroke="#2aa876" stroke-width="18"/>
  <circle cx="1054" cy="474" r="54" fill="none" stroke="#8ec9e8" stroke-width="18"/>
</svg>
