<svg xmlns="http://www.w3.org/2000/svg" viewBox="0 0 1200 650" role="img" aria-label="PerfectionGeeks modern website preview">
  <defs>
    <linearGradient id="pg-bg" x1="0" x2="1" y1="0" y2="1">
      <stop offset="0" stop-color="#111827"/>
      <stop offset="1" stop-color="#0ea5e9"/>
    </linearGradient>
  </defs>
  <rect width="1200" height="650" fill="url(#pg-bg)"/>
  <rect x="58" y="48" width="1084" height="554" rx="28" fill="#ffffff" opacity=".96"/>
  <rect x="58" y="48" width="1084" height="78" rx="28" fill="#101827"/>
  <text x="96" y="98" fill="#ffffff" font-family="Arial, Helvetica, sans-serif" font-size="30" font-weight="700">PerfectionGeeks</text>
  <rect x="770" y="75" width="70" height="10" rx="5" fill="#7dd3fc"/>
  <rect x="866" y="75" width="70" height="10" rx="5" fill="#dbeafe"/>
  <rect x="962" y="75" width="70" height="10" rx="5" fill="#dbeafe"/>
  <rect x="96" y="180" width="432" height="40" rx="20" fill="#111827"/>
  <rect x="96" y="244" width="500" height="18" rx="9" fill="#9aa8b6"/>
  <rect x="96" y="282" width="420" height="18" rx="9" fill="#cbd5e1"/>
  <rect x="96" y="338" width="170" height="46" rx="23" fill="#0284c7"/>
  <rect x="288" y="338" width="142" height="46" rx="23" fill="#e0f2fe"/>
  <rect x="682" y="172" width="376" height="260" rx="24" fill="#0f172a"/>
  <circle cx="758" cy="254" r="44" fill="#38bdf8"/>
  <circle cx="874" cy="254" r="44" fill="#22c55e"/>
  <circle cx="990" cy="254" r="44" fill="#f97316"/>
  <path d="M740 356h276" stroke="#ffffff" stroke-width="18" stroke-linecap="round" opacity=".88"/>
  <path d="M772 390h212" stroke="#94a3b8" stroke-width="14" stroke-linecap="round"/>
  <rect x="96" y="474" width="288" height="82" rx="18" fill="#eef6ff"/>
  <rect x="430" y="474" width="288" height="82" rx="18" fill="#eef6ff"/>
  <rect x="764" y="474" width="288" height="82" rx="18" fill="#eef6ff"/>
  <text x="130" y="527" fill="#111827" font-family="Arial, Helvetica, sans-serif" font-size="22" font-weight="700">Next.js</text>
  <text x="464" y="527" fill="#111827" font-family="Arial, Helvetica, sans-serif" font-size="22" font-weight="700">TypeScript</text>
  <text x="798" y="527" fill="#111827" font-family="Arial, Helvetica, sans-serif" font-size="22" font-weight="700">Swiper.js</text>
</svg>
